<?xml version="1.0" encoding="UTF-8"?>
<svg version="1.1" xmlns="http://www.w3.org/2000/svg" width="501" height="407">
<path d="M0 0 C165.33 0 330.66 0 501 0 C501 134.31 501 268.62 501 407 C335.67 407 170.34 407 0 407 C0 272.69 0 138.38 0 0 Z " fill="#1A183F" transform="translate(0,0)"/>
<path d="M0 0 C3.53922245 0.2986066 5.83146267 1.45878905 9.01171875 3.05078125 C15.95867614 6.43109813 23.01459203 9.49611077 30.13671875 12.48828125 C31.25151611 12.95733887 32.36631348 13.42639648 33.51489258 13.90966797 C35.81150898 14.87499545 38.10846849 15.83950701 40.40576172 16.80322266 C45.84081861 19.08484417 51.27028919 21.37962595 56.69921875 23.67578125 C58.31739502 24.35966919 58.31739502 24.35966919 59.96826172 25.05737305 C66.46308332 27.80540466 72.94728959 30.57700155 79.42504883 33.36499023 C93.51080381 39.42618326 107.64561887 45.36450642 121.79473877 51.27603149 C134.25533227 56.48243239 146.70647964 61.709784 159.13671875 66.98828125 C159.79255951 67.26669861 160.44840027 67.54511597 161.12411499 67.83197021 C171.16339401 72.09513614 181.19237058 76.3823974 191.20996094 80.69628906 C195.18665231 82.39291043 199.17714945 84.05346185 203.171875 85.70703125 C204.76241439 86.36708003 206.35290781 87.02723962 207.94335938 87.6875 C210.42022079 88.71540855 212.89733905 89.74267607 215.37524414 90.76806641 C217.78745104 91.76656678 220.19850023 92.76781949 222.609375 93.76953125 C223.34390396 94.07274292 224.07843292 94.37595459 224.83522034 94.68835449 C235.86531577 99.27937827 235.86531577 99.27937827 238.82421875 102.23828125 C239.26171875 105.67578125 239.26171875 105.67578125 238.82421875 109.23828125 C235.4428596 111.68182063 231.70638611 113.24800546 227.87890625 114.875 C226.727854 115.36645508 225.57680176 115.85791016 224.39086914 116.36425781 C223.16044085 116.88505358 221.9298883 117.40555585 220.69921875 117.92578125 C219.43929519 118.46043162 218.17944869 118.9952636 216.91967773 119.53027344 C215.02408986 120.33501061 213.12829292 121.13923174 211.23173523 121.94168091 C207.45455378 123.54070371 203.68827187 125.16247324 199.9296875 126.8046875 C199.06682129 127.17827393 198.20395508 127.55186035 197.31494141 127.93676758 C195.74009582 128.6187362 194.16795814 129.30700594 192.59912109 130.00268555 C188.90143152 131.58942211 185.87022183 132.78463933 181.82421875 132.23828125 C179.51171875 130.86328125 179.51171875 130.86328125 177.82421875 128.23828125 C177.15138385 124.77634441 176.81149331 121.63581177 177.82421875 118.23828125 C182.4769487 114.305974 188.09976644 112.26516698 193.69921875 109.98828125 C194.57835937 109.62476563 195.4575 109.26125 196.36328125 108.88671875 C198.51462496 107.99812026 200.66821376 107.11549501 202.82421875 106.23828125 C199.75451494 103.72359085 196.74640189 102.22673044 193.07421875 100.7421875 C191.92324707 100.27240479 190.77227539 99.80262207 189.58642578 99.31860352 C188.97462463 99.07183868 188.36282349 98.82507385 187.73248291 98.5708313 C184.44283865 97.243347 181.16132399 95.89601208 177.87890625 94.55078125 C176.86677567 94.13675804 176.86677567 94.13675804 175.834198 93.71437073 C169.17373781 90.98436087 162.55872743 88.1517562 155.94921875 85.30078125 C146.44850375 81.21018641 136.92939407 77.16749365 127.38671875 73.17578125 C114.23413395 67.67096729 101.08739241 62.15241565 87.94921875 56.61328125 C86.47826752 55.99312637 86.47826752 55.99312637 84.9776001 55.36044312 C74.20321639 50.81484323 63.44597141 46.24253561 52.76171875 41.48828125 C43.26825317 37.27268658 33.72637974 33.17624087 24.15237427 29.14733887 C22.53452849 28.4653822 20.91785854 27.78062836 19.30245972 27.09289551 C17.03963285 26.13054351 14.77247657 25.1791883 12.50390625 24.23046875 C11.83205795 23.9424942 11.16020966 23.65451965 10.46800232 23.3578186 C5.29708745 21.2171009 0.52267093 19.51091877 -5.01708984 21.00415039 C-5.94344238 21.42301514 -6.86979492 21.84187988 -7.82421875 22.2734375 C-8.89381836 22.74547607 -9.96341797 23.21751465 -11.06542969 23.70385742 C-12.2155957 24.23084229 -13.36576172 24.75782715 -14.55078125 25.30078125 C-15.7898248 25.85261431 -17.0297582 26.40245309 -18.27050781 26.95043945 C-20.90081005 28.11302854 -23.52786861 29.28255673 -26.15332031 30.45605469 C-32.03600138 33.07449356 -37.97008653 35.57104416 -43.90319824 38.07250977 C-47.36313614 39.53216128 -50.82007985 40.99887277 -54.27734375 42.46484375 C-54.98906738 42.76646423 -55.70079102 43.06808472 -56.43408203 43.37884521 C-61.98286194 45.73078386 -67.52892835 48.08906605 -73.07421875 50.44921875 C-89.48590806 57.43343445 -105.90465586 64.39829045 -122.36010742 71.27880859 C-133.12930552 75.78524421 -143.87210821 80.35301715 -154.61328125 84.92578125 C-191.26934623 100.52993945 -191.26934623 100.52993945 -203.17578125 105.23828125 C-191.32102996 110.97567691 -179.21592794 116.03046772 -167.04443359 121.05224609 C-163.10245668 122.68204387 -159.16888871 124.33128219 -155.23828125 125.98828125 C-154.50520752 126.29717285 -153.77213379 126.60606445 -153.0168457 126.92431641 C-145.04398827 130.2879814 -137.07914014 133.67058597 -129.11328125 137.05078125 C-128.39638123 137.35496979 -127.6794812 137.65915833 -126.94085693 137.9725647 C-124.77436139 138.8918378 -122.60788042 139.81114526 -120.44140625 140.73046875 C-119.73198883 141.03150009 -119.02257141 141.33253143 -118.29165649 141.64268494 C-115.10245233 142.99604755 -111.9133849 144.34972916 -108.72460938 145.70410156 C-98.59168613 150.00733627 -88.45452513 154.29914389 -78.28515625 158.515625 C-76.86507055 159.10489653 -75.44498594 159.69417067 -74.02490234 160.28344727 C-71.81872667 161.19886687 -69.61231069 162.11368267 -67.40509033 163.02658081 C-57.27595635 167.21789422 -47.19942139 171.51781288 -37.15234375 175.90234375 C-34.90836795 176.87795888 -32.66430876 177.85338223 -30.42016602 178.82861328 C-27.08906314 180.27636009 -23.76030539 181.72855587 -20.43771362 183.19573975 C-17.3358304 184.56535218 -14.22733563 185.91881523 -11.1171875 187.26953125 C-9.71957687 187.89488266 -9.71957687 187.89488266 -8.29373169 188.53286743 C-7.42795502 188.90551727 -6.56217834 189.27816711 -5.67016602 189.66210938 C-4.91937271 189.99214966 -4.16857941 190.32218994 -3.39503479 190.66223145 C0.73078816 191.73316789 4.32808369 190.16490925 8.1171875 188.53125 C8.91318359 188.19158203 9.70917969 187.85191406 10.52929688 187.50195312 C11.34849609 187.14681641 12.16769531 186.79167969 13.01171875 186.42578125 C14.62980305 185.73082643 16.24829428 185.03681834 17.8671875 184.34375 C18.68767578 183.9921582 19.50816406 183.64056641 20.35351562 183.27832031 C22.74227184 182.27277669 25.14367946 181.31015336 27.5546875 180.359375 C33.43500125 178.02359482 39.22519234 175.48740716 45.02270508 172.95443726 C55.68014651 168.30117629 66.36437954 163.72335912 77.1081543 159.27246094 C86.14811686 155.52640019 95.17121726 151.74091234 104.19042969 147.94522095 C105.88639348 147.23159813 107.58251634 146.5183532 109.27880859 145.80551147 C121.59855247 140.63065282 121.59855247 140.63065282 133.82421875 135.23828125 C123.02025898 132.03211061 112.23824805 128.99307692 101.21533203 126.63549805 C92.70004798 124.80727773 84.31169335 122.53763229 75.9453125 120.12109375 C64.96596557 116.97181666 53.88756068 114.32577794 42.7578125 111.77001953 C34.72256823 109.9235057 26.72440298 107.98983535 18.7578125 105.8671875 C14.09032029 104.86656667 11.12564052 104.74394553 7.01171875 107.23828125 C2.59230834 109.56428673 -0.19462755 109.8708087 -5.17578125 109.23828125 C-10.93858497 107.04348635 -14.41626531 103.31743414 -17.42578125 98.05078125 C-18.79307613 92.92342543 -19.43674504 87.8634194 -17.078125 82.953125 C-13.36638756 77.65771292 -9.25880862 74.01147912 -2.82421875 72.79296875 C3.2719088 72.35887917 7.12153571 73.94797629 11.97265625 77.58203125 C14.22499956 79.5967856 15.68549898 81.42943915 16.82421875 84.23828125 C16.82421875 85.22828125 16.82421875 86.21828125 16.82421875 87.23828125 C17.96375 87.46902344 19.10328125 87.69976562 20.27734375 87.9375 C31.43489224 90.22549456 42.481637 92.82609512 53.51513672 95.64892578 C56.86503854 96.5039335 60.21953712 97.33971272 63.57421875 98.17578125 C64.84394531 98.49417969 66.11367188 98.81257813 67.421875 99.140625 C70.84398202 99.9967558 74.26932964 100.83920745 77.6953125 101.6796875 C95.75206567 106.12706665 95.75206567 106.12706665 102.44921875 108.30078125 C109.96473473 110.71899133 117.67214272 112.30167066 125.37109375 114.015625 C136.05000743 116.3951251 146.61121841 119.0491679 157.04296875 122.3671875 C159.31535843 123.07890505 161.58137357 123.70979234 163.88671875 124.30078125 C167.02642467 125.30281505 168.5698822 125.840909 170.82421875 128.23828125 C171.20534932 131.14111934 171.33031076 133.66316831 171.27832031 136.56518555 C171.27890442 137.41418427 171.27948853 138.26318298 171.28009033 139.13790894 C171.2773017 141.94652067 171.24617339 144.75407349 171.21484375 147.5625 C171.20738412 149.5087679 171.20168988 151.45504332 171.19769287 153.40132141 C171.18241465 158.52581491 171.14311392 163.64985547 171.09887695 168.77416992 C171.05797145 174.00237907 171.03969195 179.23066135 171.01953125 184.45898438 C170.97662185 194.71894909 170.908344 204.97857752 170.82421875 215.23828125 C171.77578857 215.52960938 172.7273584 215.8209375 173.70776367 216.12109375 C177.1430258 217.35256727 178.12037797 218.28170609 180.13671875 221.23828125 C180.62785156 221.93953125 181.11898438 222.64078125 181.625 223.36328125 C184.65509803 228.10089381 184.46778203 232.73616879 183.82421875 238.23828125 C182.57315995 241.84171703 181.07925831 245.15110033 178.82421875 248.23828125 C177.83421875 248.56828125 176.84421875 248.89828125 175.82421875 249.23828125 C176.23196533 249.68743896 176.63971191 250.13659668 177.05981445 250.59936523 C181.77171581 256.23710892 183.0588722 261.1138855 184.01171875 268.30078125 C184.32400294 270.35049225 184.63780626 272.39997238 184.953125 274.44921875 C185.0989502 275.44018555 185.24477539 276.43115234 185.39501953 277.45214844 C185.96313634 281.14006027 186.68907832 284.77256903 187.44921875 288.42578125 C192.72644083 314.40816975 192.72644083 314.40816975 187.23828125 323.23828125 C182.94480302 329.31082504 176.34782706 334.91217763 168.82421875 336.23828125 C159.81139802 337.02395678 153.1953869 336.68379091 145.82421875 331.23828125 C144.91671875 330.64015625 144.00921875 330.04203125 143.07421875 329.42578125 C139.02766817 325.49163485 136.10554989 322.06014583 135.52709961 316.25805664 C135.55894184 307.3155872 136.60352184 298.84056114 138.19921875 290.05078125 C138.4209375 288.77525391 138.64265625 287.49972656 138.87109375 286.18554688 C140.00868551 279.67116112 141.19424356 273.16530201 142.38745117 266.66088867 C143.00734223 263.22255499 143.58788296 259.77792055 144.1640625 256.33203125 C144.82421875 254.23828125 144.82421875 254.23828125 146.453125 252.70703125 C147.13181641 251.98 147.13181641 251.98 147.82421875 251.23828125 C147.57789639 248.05503846 146.16505612 246.21099304 144.26171875 243.73828125 C140.90518799 238.4679391 140.68629029 233.30192801 141.82421875 227.23828125 C144.11130546 222.22286924 147.13196497 218.20326838 151.82421875 215.23828125 C152.81421875 215.23828125 153.80421875 215.23828125 154.82421875 215.23828125 C154.49421875 192.13828125 154.16421875 169.03828125 153.82421875 145.23828125 C148.87421875 147.54828125 143.92421875 149.85828125 138.82421875 152.23828125 C107.51328462 166.46865996 75.73451864 179.65909228 43.99145508 192.88867188 C36.15759555 196.15523766 28.33099667 199.4327562 20.546875 202.81640625 C19.33757324 203.33928223 18.12827148 203.8621582 16.88232422 204.40087891 C14.71973281 205.339161 12.56082885 206.28601529 10.40673828 207.24365234 C0.44008688 211.55845157 0.44008688 211.55845157 -5.47338867 209.39941406 C-8.38873964 208.18577414 -11.24869308 206.87979518 -14.11328125 205.55078125 C-16.39862318 204.51835852 -18.68513197 203.48851577 -20.97265625 202.4609375 C-22.16568359 201.92355957 -23.35871094 201.38618164 -24.58789062 200.83251953 C-30.30761491 198.29102528 -36.08377594 195.88997547 -41.86328125 193.48828125 C-56.37595412 187.44174988 -70.83968757 181.28199424 -85.30078125 175.11328125 C-102.62032996 167.7261723 -119.95004215 160.36434175 -137.30078125 153.05078125 C-150.4426384 147.51104461 -163.57321296 141.9480467 -176.67504883 136.31420898 C-183.1682349 133.5229534 -189.67062285 130.75491148 -196.18261719 128.0078125 C-200.45668644 126.20474872 -204.72830176 124.39593798 -208.99902344 122.58496094 C-211.16314742 121.66755332 -213.32788649 120.75159564 -215.49316406 119.83691406 C-218.70313713 118.47823032 -221.90869516 117.10961428 -225.11328125 115.73828125 C-226.57084839 115.12412354 -226.57084839 115.12412354 -228.05786133 114.49755859 C-228.95142334 114.11293457 -229.84498535 113.72831055 -230.765625 113.33203125 C-231.93919556 112.83219727 -231.93919556 112.83219727 -233.13647461 112.32226562 C-235.29634918 111.1741939 -236.67387738 110.16900293 -238.17578125 108.23828125 C-238.30078125 104.80078125 -238.30078125 104.80078125 -237.17578125 101.23828125 C-231.51506846 97.44390701 -225.20153187 95.02420968 -218.92578125 92.42578125 C-216.59075754 91.44884422 -214.25614395 90.47092656 -211.921875 89.4921875 C-211.3045903 89.23383118 -210.6873056 88.97547485 -210.05131531 88.70928955 C-203.08493973 85.78990266 -196.1478386 82.80280776 -189.20916748 79.81832886 C-176.44652871 74.33001187 -163.66003348 68.90300168 -150.84234619 63.54455566 C-142.16666819 59.91758442 -133.50734554 56.25590248 -124.86914062 52.54052734 C-102.70559952 43.01158881 -80.43828703 33.72523372 -58.18640137 24.4050293 C-49.14506068 20.61795825 -40.10499407 16.82787577 -31.06719971 13.03234863 C-29.14770134 12.22649256 -27.2279247 11.42130227 -25.30810547 10.61621094 C-21.63769641 9.07665504 -17.96913905 7.53271878 -14.30078125 5.98828125 C-12.63245239 5.28904541 -12.63245239 5.28904541 -10.93041992 4.57568359 C-9.92084229 4.14980957 -8.91126465 3.72393555 -7.87109375 3.28515625 C-6.98437988 2.91229492 -6.09766602 2.53943359 -5.18408203 2.15527344 C-0.61017689 0.06682368 -0.61017689 0.06682368 0 0 Z " fill="#7B7DF8" transform="translate(248.17578125,27.76171875)"/>
<path d="M0 0 C3.12668974 0.79186183 4.79428293 2.30012378 7.09765625 4.53125 C7.70324707 7.22521973 7.70324707 7.22521973 7.67773438 10.33789062 C7.68123901 11.5059021 7.68474365 12.67391357 7.68835449 13.87731934 C7.66873657 15.13467896 7.64911865 16.39203857 7.62890625 17.6875 C7.63389124 19.66506345 7.63890359 21.64262728 7.64554596 23.62018585 C7.65146129 27.79342549 7.61277899 31.96648739 7.58221436 36.1395874 C7.55875718 39.57741137 7.54497108 43.01461541 7.55651855 46.45251465 C7.5630161 49.03011474 7.54717018 51.60788607 7.50695801 54.18518066 C7.51046265 55.35319214 7.51396729 56.52120361 7.51757812 57.72460938 C7.50915894 58.75179077 7.50073975 59.77897217 7.49206543 60.83728027 C8.31841851 64.51331053 10.01105222 65.50795117 13.09765625 67.53125 C15.47495079 68.78096501 15.47495079 68.78096501 17.9921875 69.7578125 C18.93320313 70.14380615 19.87421875 70.5297998 20.84375 70.92749023 C22.36162109 71.53572632 22.36162109 71.53572632 23.91015625 72.15625 C26.11472346 73.05564618 28.31914715 73.95539424 30.5234375 74.85546875 C31.6367041 75.30712402 32.7499707 75.7587793 33.89697266 76.22412109 C36.7164308 77.37556113 39.52484091 78.54814156 42.328125 79.73828125 C61.60812363 87.91371252 81.11863566 95.52795424 100.60746765 103.1882019 C105.67027648 105.1786447 110.72929154 107.17766666 115.77972412 109.1993103 C118.73650449 110.38096069 121.69872929 111.54880355 124.66015625 112.71875 C126.15361572 113.32396484 126.15361572 113.32396484 127.67724609 113.94140625 C138.21390301 118.06207564 144.50783399 115.96230399 154.66015625 111.59375 C155.92912033 111.05712679 157.19833334 110.52109188 158.46777344 109.9855957 C182.8083363 99.66281448 206.84654249 88.6090252 230.88964844 77.6159668 C232.14378473 77.04324792 233.3980148 76.47073432 234.65234375 75.8984375 C235.25344971 75.62411392 235.85455566 75.34979034 236.47387695 75.06715393 C241.98336208 72.56319828 247.52990836 70.14551161 253.09078979 67.75802612 C256.32744386 66.51682734 256.32744386 66.51682734 259.09765625 64.53125 C259.19994107 62.77806076 259.23336259 61.02080817 259.23950195 59.26464844 C259.24653641 58.13967957 259.25357086 57.01471069 259.26081848 55.85565186 C259.2670649 54.01671356 259.2670649 54.01671356 259.2734375 52.140625 C259.29663817 49.56900225 259.3207556 46.99738764 259.34570312 44.42578125 C259.38209409 40.35270209 259.4118431 36.27977306 259.42358398 32.20654297 C259.43561942 28.28845331 259.47924411 24.37098742 259.5234375 20.453125 C259.52152908 19.23526306 259.51962067 18.01740112 259.51765442 16.76263428 C259.53414536 15.62505676 259.55063629 14.48747925 259.56762695 13.31542969 C259.57349319 12.31695007 259.57935944 11.31847046 259.58540344 10.28973389 C260.23633772 6.78444963 261.66594615 5.08980217 264.09765625 2.53125 C266.98627334 1.08694145 268.89413326 1.15436494 272.09765625 1.53125 C274.74649092 3.16917558 275.6764662 3.85329309 277.09765625 6.53125 C277.85504773 11.20374048 277.77732985 15.86958877 277.7265625 20.58984375 C277.72739188 21.98080124 277.72985389 23.37175863 277.73387146 24.76271057 C277.73672547 27.67389531 277.72207104 30.58430901 277.69458008 33.49536133 C277.66052804 37.21567346 277.66650774 40.9346047 277.68524265 44.65498257 C277.69584398 47.52650838 277.68684627 50.3977164 277.67185783 53.26921272 C277.66669627 54.64024981 277.66713313 56.01132037 277.67340279 57.38235283 C277.6985716 66.19433111 277.49067062 70.87065062 271.42626953 77.30444336 C267.54360485 80.58294452 263.63638381 83.04644569 258.97265625 85.09375 C258.25875732 85.41835205 257.5448584 85.7429541 256.80932617 86.07739258 C255.17368316 86.81844038 253.53539161 87.55365978 251.89501953 88.28417969 C248.78876518 89.66895427 245.6912214 91.07225567 242.59375 92.4765625 C229.02470883 98.61097625 215.39619018 104.59955086 201.72241211 110.49682617 C189.66857481 115.69838035 177.66237186 121.00625897 165.66236877 126.33065796 C163.69273448 127.20090411 161.71925733 128.06190894 159.74511719 128.921875 C157.43645634 129.9405291 155.14057952 130.9891206 152.86425781 132.078125 C143.3384008 136.480858 135.59162279 137.05667206 125.6640625 133.43359375 C123.32067556 132.46624685 120.98641121 131.47659929 118.66015625 130.46875 C117.35727384 129.92311517 116.05345044 129.37972276 114.7487793 128.83837891 C111.96599104 127.681407 109.18781347 126.51419177 106.41210938 125.34033203 C102.10125276 123.52409583 97.76739806 121.76855296 93.42578125 120.02734375 C76.40912116 113.19797712 59.45528433 106.22128424 42.53515625 99.15625 C41.65493805 98.78965271 40.77471985 98.42305542 39.86782837 98.04534912 C34.78595796 95.92723283 29.71335746 93.78898109 24.65203857 91.62219238 C22.90162076 90.87461245 21.14910383 90.13193391 19.39483643 89.39343262 C16.6965103 88.25409793 14.00779878 87.0943268 11.3203125 85.9296875 C10.51226669 85.59240631 9.70422089 85.25512512 8.87168884 84.90762329 C1.66647429 81.73953312 -5.60233863 76.97595307 -9.25756836 69.72714233 C-10.82501333 64.38894171 -10.47128032 58.7229588 -10.43359375 53.20703125 C-10.43629199 51.81414011 -10.44017716 50.42125082 -10.44519043 49.02836609 C-10.45106419 46.12085898 -10.44258828 43.21384586 -10.42382812 40.30639648 C-10.40097474 36.58374403 -10.41421372 32.86224121 -10.43811798 29.13963032 C-10.45257973 26.26821745 -10.44796959 23.39707686 -10.43760681 20.52565575 C-10.43494382 19.15295461 -10.43819431 17.78022854 -10.44752502 16.40755653 C-10.45770176 14.49086619 -10.43943555 12.57408873 -10.41992188 10.6574707 C-10.4167395 9.56827835 -10.41355713 8.479086 -10.41027832 7.35688782 C-9.32623537 1.32636159 -5.75340997 0.09150553 0 0 Z " fill="#7C79F8" transform="translate(104.90234375,199.46875)"/>
<path d="M0 0 C1.32 0 2.64 0 4 0 C10.01748388 26.22466772 10.01748388 26.22466772 11.875 37.3125 C11.99464111 38.01487793 12.11428223 38.71725586 12.23754883 39.44091797 C12.85785679 43.3232149 13.42538487 47.08078741 13 51 C9.87570869 54.48946822 5.85510275 55.88405386 1.3125 56.5 C-2.20348445 55.96928537 -4.18917733 55.14945263 -7 53 C-8.53173222 49.93653556 -7.91554647 46.83228628 -7.6875 43.5 C-7.63972412 42.77312988 -7.59194824 42.04625977 -7.54272461 41.29736328 C-7.20189448 36.61732332 -6.57789426 32.12984987 -5.53125 27.55078125 C-4.87582749 24.40378936 -4.47690282 21.24994835 -4.0625 18.0625 C-3.21368034 11.86272117 -1.83021107 5.97868949 0 0 Z " fill="#211A61" transform="translate(409,291)"/>
<path d="M0 0 C-2.05865621 1.0293281 -4.11711593 2.05688488 -6.1875 3.0625 C-7.96886748 3.8677996 -7.96886748 3.8677996 -9 5 C-9.09925049 6.93706622 -9.12799408 8.87777609 -9.12939453 10.81738281 C-9.13254669 12.0624762 -9.13569885 13.30756958 -9.13894653 14.59039307 C-9.13715597 15.96130407 -9.13510482 17.33221475 -9.1328125 18.703125 C-9.13348586 20.10219337 -9.13445616 21.50126162 -9.13571167 22.90032959 C-9.13718907 25.83932606 -9.13503404 28.77829221 -9.13037109 31.71728516 C-9.12469476 35.47775332 -9.12793917 39.23814978 -9.13394356 42.99861526 C-9.137566 45.89144424 -9.13640249 48.78425638 -9.13381577 51.67708588 C-9.13315006 53.06291462 -9.13396245 54.4487449 -9.13629532 55.83457184 C-9.13884706 57.7780606 -9.13426546 59.72155473 -9.12939453 61.66503906 C-9.12859894 62.77010803 -9.12780334 63.875177 -9.12698364 65.01373291 C-9.0089663 67.78914003 -8.63124116 70.29998432 -8 73 C-11.30424917 68.69010977 -12.12813256 66.52724464 -12.17700195 61.05322266 C-12.18983719 59.80497711 -12.20267242 58.55673157 -12.21589661 57.2706604 C-12.22406338 55.90179846 -12.23150723 54.53293204 -12.23828125 53.1640625 C-12.24439454 52.13172548 -12.24439454 52.13172548 -12.25063133 51.07853317 C-12.2714887 47.43647308 -12.28579232 43.79445064 -12.29516602 40.15234375 C-12.30623551 36.39044301 -12.34064152 32.62913297 -12.38033772 28.86744118 C-12.40647958 25.97464903 -12.41485557 23.08199824 -12.41844749 20.18909836 C-12.42331912 18.80240256 -12.43494968 17.41571331 -12.45348549 16.02913284 C-12.47782229 14.08808881 -12.4744975 12.14675772 -12.4699707 10.20556641 C-12.47877007 8.54915634 -12.47877007 8.54915634 -12.48774719 6.85928345 C-11.22134774 -0.56463423 -6.21960619 -0.41464041 0 0 Z " fill="#6493E3" transform="translate(107,200)"/>
<path d="M0 0 C0.33 0.66 0.66 1.32 1 2 C-2.02734375 2.24414062 -2.02734375 2.24414062 -5.0546875 2.48828125 C-7.39519216 2.87393036 -7.39519216 2.87393036 -9 6 C-9.31862019 7.98469151 -9.31862019 7.98469151 -9.30297852 10.17333984 C-9.31962051 11.01206635 -9.33626251 11.85079285 -9.35340881 12.7149353 C-9.36182297 13.62111603 -9.37023712 14.52729675 -9.37890625 15.4609375 C-9.39590073 16.40248688 -9.4128952 17.34403625 -9.43040466 18.31411743 C-9.4835626 21.33434269 -9.5237517 24.35455832 -9.5625 27.375 C-9.62105718 31.32040976 -9.68532679 35.26568962 -9.75390625 39.2109375 C-9.76982819 40.15588074 -9.78575012 41.10082397 -9.80215454 42.07440186 C-9.93793066 49.08038813 -10.3074202 56.02431628 -11 63 C-11.33 63 -11.66 63 -12 63 C-12.09281004 55.65459022 -12.1638202 48.30930752 -12.20724869 40.96342945 C-12.22809576 37.55215001 -12.25635897 34.14127266 -12.30175781 30.73022461 C-12.35365959 26.80587631 -12.37296922 22.88168904 -12.390625 18.95703125 C-12.41127014 17.73603226 -12.43191528 16.51503326 -12.45318604 15.2570343 C-12.45363922 13.54582649 -12.45363922 13.54582649 -12.45410156 11.80004883 C-12.46298401 10.79855301 -12.47186646 9.79705719 -12.48101807 8.76521301 C-11.86730117 5.23715855 -10.44473789 3.56528095 -8 1 C-5.29120665 -0.35439668 -2.99066732 -0.06501451 0 0 Z " fill="#644ECF" transform="translate(377,201)"/>
<path d="M0 0 C2 2 2 2 2.3125 4.9375 C2 8 2 8 0.8125 9.9375 C-1 11 -1 11 -3.5 10.875 C-6.1985972 9.93049098 -7.3982611 9.36045732 -9 7 C-9.4375 4.5 -9.4375 4.5 -9 2 C-6.07557433 -1.24936186 -4.04996841 -1.38551551 0 0 Z " fill="#211657" transform="translate(414,257)"/>
<path d="M0 0 C0.33 0.66 0.66 1.32 1 2 C-0.2375 2.0825 -1.475 2.165 -2.75 2.25 C-5.98882964 2.63475459 -6.87907883 2.90024003 -9.5 5.0625 C-10.2425 6.0215625 -10.2425 6.0215625 -11 7 C-10.63802104 4.37565253 -10.17343943 3.17986311 -8.3125 1.25 C-5.39572708 -0.32663401 -3.26709987 -0.22275681 0 0 Z " fill="#6A56D2" transform="translate(377,201)"/>
<path d="M0 0 C4.37934119 0.51958285 8.68803391 1.05675742 13 2 C10.8614515 4.1385485 9.86724686 4.42655063 7 5 C6.67 4.01 6.34 3.02 6 2 C3.03 1.505 3.03 1.505 0 1 C0 0.67 0 0.34 0 0 Z " fill="#1F1A5D" transform="translate(371,160)"/>
<path d="M0 0 C2.05078125 0.03255208 4.1015625 0.06510417 6.15234375 0.09765625 C4.81901042 0.76432292 3.48567708 1.43098958 2.15234375 2.09765625 C1.47171875 2.44828125 0.79109375 2.79890625 0.08984375 3.16015625 C-1.84765625 4.09765625 -1.84765625 4.09765625 -4.84765625 5.09765625 C-2.44354091 0.12915121 -2.44354091 0.12915121 0 0 Z " fill="#6EA4F3" transform="translate(100.84765625,199.90234375)"/>
<path d="M0 0 C0.33 0 0.66 0 1 0 C1.1799928 5.21979128 0.97094808 9.07262981 -1 14 C-1.66 14 -2.32 14 -3 14 C-2.01 9.38 -1.02 4.76 0 0 Z " fill="#251C6A" transform="translate(432,259)"/>
<path d="M0 0 C0.66 0.33 1.32 0.66 2 1 C-0.31 3.31 -2.62 5.62 -5 8 C-5.66 7.67 -6.32 7.34 -7 7 C-4.66666667 4.66666667 -2.33333333 2.33333333 0 0 Z " fill="#775FE3" transform="translate(400,243)"/>
</svg>
